{"title":"WWE MONEY IN THE BANK PPV 2012 BZINGAZ(with pre-show)","uid":7448504,"size":683163138,"categoryP":"video","categoryS":"tv_shows","magnet":"?xt=urn:btih:c66dd40f32ef3a00e742f8076de9f7dc28bb11ce&amp;dn=WWE+MONEY+IN+THE+BANK+PPV+2012+BZINGAZ%28with+pre-show%29&amp;tr=udp%3A%2F%2Ftracker.openbittorrent.com%3A80&amp;tr=udp%3A%2F%2Fopen.demonii.com%3A1337&amp;tr=udp%3A%2F%2Ftracker.coppersurfer.tk%3A6969&amp;tr=udp%3A%2F%2Fexodus.desync.com%3A6969","seeders":0,"leechers":1,"uploader":"bzingaz","files":-1,"time":1342443611,"description":"WWE MONEY IN THE BANK PPV 2012 BZINGAZ(with pre-show)...enjoy...comment on quality and seed..\n\nDetails:\n\nscreenshots:\n &lt;a href=&quot;\nhttp://image.bayimg.com/gaaniaaea.jpg&quot; rel=&quot;nofollow&quot; target=&quot;_NEW&quot;&gt;\nhttp://image.bayimg.com/gaaniaaea.jpg&lt;/a&gt;\n &lt;a href=&quot;\nhttp://image.bayimg.com/gaankaaea.jpg&quot; rel=&quot;nofollow&quot; target=&quot;_NEW&quot;&gt;\nhttp://image.bayimg.com/gaankaaea.jpg&lt;/a&gt;\n &lt;a href=&quot;\nhttp://image.bayimg.com/gaanlaaea.jpg&quot; rel=&quot;nofollow&quot; target=&quot;_NEW&quot;&gt;\nhttp://image.bayimg.com/gaanlaaea.jpg&lt;/a&gt;\n\n\nWWE MONEY IN THE BANK 2012 PPV BZINGAZ.mp4\n\nFormat                           : MPEG-4\nFormat profile                   : Base Media\nCodec ID                         : isom\nFile size                        : 558 MiB\nDuration                         : 2h 49mn\nOverall bit rate                 : 460 Kbps\n\nVideo\nID                               : 1\nFormat                           : AVC\nFormat/Info                      : Advanced Video Codec\nFormat profile                   : &lt;a class=&quot;__cf_email__&quot; href=&quot;/cdn-cgi/l/email-protection&quot; data-cfemail=&quot;8dcfecfee8e1e4e3e8cdc1bea3bd&quot;&gt;[email&amp;#160;protected]&lt;/a&gt;&lt;script cf-hash='f9e31' type=&quot;text/javascript&quot;&gt;\n/* &lt;![CDATA[ */!function(){try{var t=&quot;currentScript&quot;in document?document.currentScript:function(){for(var t=document.getElementsByTagName(&quot;script&quot;),e=t.length;e--;)if(t[e].getAttribute(&quot;cf-hash&quot;))return t[e]}();if(t&amp;&amp;t.previousSibling){var e,r,n,i,c=t.previousSibling,a=c.getAttribute(&quot;data-cfemail&quot;);if(a){for(e=&quot;&quot;,r=parseInt(a.substr(0,2),16),n=2;a.length-n;n+=2)i=parseInt(a.substr(n,2),16)^r,e+=String.fromCharCode(i);e=document.createTextNode(e),c.parentNode.replaceChild(e,c)}}}catch(u){}}();/* ]]&gt; */&lt;/script&gt;\nFormat settings, CABAC           : No\nFormat settings, ReFrames        : 3 frames\nCodec ID                         : avc1\nCodec ID/Info                    : Advanced Video Coding\nDuration                         : 2h 49mn\nBit rate mode                    : Variable\nBit rate                         : 360 Kbps\nWidth                            : 512 pixels\nHeight                           : 288 pixels\nDisplay aspect ratio             : 16:9\nFrame rate mode                  : Constant\nFrame rate                       : 25.000 fps\nColor space                      : YUV\nChroma subsampling               : 4:2:0\nBit depth                        : 8 bits\nScan type                        : Progressive\nBits/(Pixel*Frame)               : 0.098\nStream size                      : 436 MiB (78%)\nWriting library                  : x264 core 120 r2M 0f692db\n\nAudio\nID                               : 2\nFormat                           : AAC\nFormat/Info                      : Advanced Audio Codec\nFormat profile                   : LC\nCodec ID                         : 40\nDuration                         : 2h 49mn\nBit rate mode                    : Variable\nBit rate                         : 96.0 Kbps\nChannel(s)                       : 2 channels\nChannel positions                : Front: L R\nSampling rate                    : 44.1 KHz\nCompression mode                 : Lossy\nStream size                      : 117 MiB (21%)\n\nNote: pre-show is included of 28 minutes..enjoy","torrent":{"xt":"urn:btih:c66dd40f32ef3a00e742f8076de9f7dc28bb11ce","amp;dn":"WWE+MONEY+IN+THE+BANK+PPV+2012+BZINGAZ%28with+pre-show%29","amp;tr":["udp%3A%2F%2Ftracker.openbittorrent.com%3A80","udp%3A%2F%2Fopen.demonii.com%3A1337","udp%3A%2F%2Ftracker.coppersurfer.tk%3A6969","udp%3A%2F%2Fexodus.desync.com%3A6969"],"infoHash":"c66dd40f32ef3a00e742f8076de9f7dc28bb11ce","infoHashBuffer":{"type":"Buffer","data":[198,109,212,15,50,239,58,0,231,66,248,7,109,233,247,220,40,187,17,206]},"announce":[],"urlList":[]}}